HIERARCHY
ROOT Hips
{
	OFFSET 0.000000 1.471914 24.280096
	CHANNELS 6 Xposition Yposition Zposition Xrotation Yrotation Zrotation
	JOINT Spine
	{
		OFFSET 0.000000 0.900110 1.860670
		CHANNELS 6 Xposition Yposition Zposition Xrotation Yrotation Zrotation
		JOINT Spine1
		{
			OFFSET 0.000000 0.400320 2.270309
			CHANNELS 6 Xposition Yposition Zposition Xrotation Yrotation Zrotation
			JOINT Spine2
			{
				OFFSET 0.000000 0.200920 2.296560
				CHANNELS 6 Xposition Yposition Zposition Xrotation Yrotation Zrotation
				JOINT Spine3
				{
					OFFSET 0.000000 0.000000 2.305330
					CHANNELS 6 Xposition Yposition Zposition Xrotation Yrotation Zrotation
					JOINT Neck
					{
						OFFSET 0.000000 -0.864490 6.051487
						CHANNELS 6 Xposition Yposition Zposition Xrotation Yrotation Zrotation
						JOINT Head
						{
							OFFSET 0.000000 -0.550429 3.121674
							CHANNELS 6 Xposition Yposition Zposition Xrotation Yrotation Zrotation
							End Site
							{
								OFFSET 0.000000 0.000000 3.731750
							}
						}
					}
					JOINT RightShoulder
					{
						OFFSET -0.788280 -1.313800 4.256718
						CHANNELS 6 Xposition Yposition Zposition Xrotation Yrotation Zrotation
						JOINT RightArm
						{
							OFFSET -3.915130 0.000000 0.000000
							CHANNELS 6 Xposition Yposition Zposition Xrotation Yrotation Zrotation
							JOINT RightForeArm
							{
								OFFSET -6.914910 0.000000 0.000000
								CHANNELS 6 Xposition Yposition Zposition Xrotation Yrotation Zrotation
								JOINT RightHand
								{
									OFFSET -6.096219 0.000000 0.000000
									CHANNELS 6 Xposition Yposition Zposition Xrotation Yrotation Zrotation
									JOINT RightHandEnd
									{
										OFFSET -1.749950 0.000000 0.000000
										CHANNELS 6 Xposition Yposition Zposition Xrotation Yrotation Zrotation
										End Site
										{
											OFFSET -1.749950 0.000000 0.000000
										}
									}
									JOINT RightHandThumb1
									{
										OFFSET -0.699980 -1.166630 -0.466648
										CHANNELS 6 Xposition Yposition Zposition Xrotation Yrotation Zrotation
										End Site
										{
											OFFSET -1.690319 -0.452920 0.000000
										}
									}
								}
							}
						}
					}
					JOINT LeftShoulder
					{
						OFFSET 0.788280 -1.313800 4.256718
						CHANNELS 6 Xposition Yposition Zposition Xrotation Yrotation Zrotation
						JOINT LeftArm
						{
							OFFSET 3.915130 0.000000 0.000000
							CHANNELS 6 Xposition Yposition Zposition Xrotation Yrotation Zrotation
							JOINT LeftForeArm
							{
								OFFSET 6.914910 0.000000 0.000000
								CHANNELS 6 Xposition Yposition Zposition Xrotation Yrotation Zrotation
								JOINT LeftHand
								{
									OFFSET 6.096219 0.000000 0.000000
									CHANNELS 6 Xposition Yposition Zposition Xrotation Yrotation Zrotation
									JOINT LeftHandEnd
									{
										OFFSET 1.749950 0.000000 0.000000
										CHANNELS 6 Xposition Yposition Zposition Xrotation Yrotation Zrotation
										End Site
										{
											OFFSET 1.749950 0.000000 0.000000
										}
									}
									JOINT LeftHandThumb1
									{
										OFFSET 0.699980 -1.166630 -0.466648
										CHANNELS 6 Xposition Yposition Zposition Xrotation Yrotation Zrotation
										End Site
										{
											OFFSET 1.690319 -0.452920 0.000000
										}
									}
								}
							}
						}
					}
				}
			}
		}
	}
	JOINT RightUpLeg
	{
		OFFSET -2.338570 -0.252550 -0.551512
		CHANNELS 6 Xposition Yposition Zposition Xrotation Yrotation Zrotation
		JOINT RightLeg
		{
			OFFSET 0.000000 0.000000 -10.744959
			CHANNELS 6 Xposition Yposition Zposition Xrotation Yrotation Zrotation
			JOINT RightFoot
			{
				OFFSET 0.000000 -0.000001 -10.930849
				CHANNELS 6 Xposition Yposition Zposition Xrotation Yrotation Zrotation
				JOINT RightToeBase
				{
					OFFSET 0.000000 -4.087269 -1.487650
					CHANNELS 6 Xposition Yposition Zposition Xrotation Yrotation Zrotation
					End Site
					{
						OFFSET 0.000000 -1.891870 0.000000
					}
				}
			}
		}
	}
	JOINT LeftUpLeg
	{
		OFFSET 2.338570 -0.252550 -0.551512
		CHANNELS 6 Xposition Yposition Zposition Xrotation Yrotation Zrotation
		JOINT LeftLeg
		{
			OFFSET 0.000000 0.000000 -10.744959
			CHANNELS 6 Xposition Yposition Zposition Xrotation Yrotation Zrotation
			JOINT LeftFoot
			{
				OFFSET 0.000000 -0.000001 -10.930849
				CHANNELS 6 Xposition Yposition Zposition Xrotation Yrotation Zrotation
				JOINT LeftToeBase
				{
					OFFSET 0.000000 -4.087269 -1.487650
					CHANNELS 6 Xposition Yposition Zposition Xrotation Yrotation Zrotation
					End Site
					{
						OFFSET 0.000000 -1.891870 0.000000
					}
				}
			}
		}
	}
}
MOTION
Frames: 7
Frame Time: 0.041667
0.000146 26.873785 34.755512 -8.265495 -4.452681 64.790594 -0.000004 0.900087 1.860680 29.687953 -10.094639 4.491349 -0.000017 0.400274 2.270296 0.000007 0.000000 0.000015 0.000015 0.200868 2.296547 0.000001 -0.000002 0.000005 0.000016 0.000025 2.305301 -0.000020 -0.000002 5.577870 -0.000017 -0.864446 6.051374 -10.023356 3.915219 -176.760965 0.000050 -0.550413 3.121670 -0.000007 -0.000002 -0.000008 -0.788271 -1.313738 4.256831 3.782604 122.681659 142.287853 -3.915133 -0.000023 -0.000008 0.000001 -0.000011 0.000004 -6.914849 -0.000001 0.000028 0.000008 0.000008 -79.044803 -6.096187 0.000018 0.000017 -0.000027 -0.000020 -0.000048 -1.749903 -0.000015 0.000032 -0.000001 0.000003 -0.000001 -0.699967 -1.166614 -0.466642 -0.000021 -0.000008 -0.000028 0.788258 -1.313762 4.256765 -127.427779 -52.766558 74.898126 3.915258 0.000003 -0.000035 -0.000001 0.000003 0.000001 6.914930 -0.000061 -0.000001 -0.000010 -0.000000 65.297722 6.096263 0.000179 -0.000023 0.000005 0.000008 0.000021 1.749997 0.000013 0.000067 -0.000009 -0.000005 -0.000000 0.699981 -1.166588 -0.466648 0.000040 -0.000004 -0.000045 -2.338595 -0.252540 -0.551447 -68.633122 -9.657324 -8.526576 0.000015 -0.000017 -10.744942 77.219079 -3.162393 -6.111920 -0.000026 0.000071 -10.930840 0.000051 -0.000005 0.000004 -0.000029 -4.087235 -1.487618 0.000004 -0.000000 0.000004 2.338590 -0.252534 -0.551483 -67.818628 5.006704 -8.489271 -0.000027 -0.000000 -10.744922 89.399690 -5.414250 8.403973 0.000006 -0.000007 -10.930861 -0.000015 -0.000003 0.000002 -0.000052 -4.087207 -1.487650 0.000002 0.000000 -0.000006 
0.000147 26.873785 34.755512 -8.224278 -4.353370 64.728262 -0.000005 0.900086 1.860676 29.805228 -10.122764 4.532070 -0.000016 0.400272 2.270294 0.000007 0.000001 0.000014 0.000016 0.200872 2.296551 -0.000000 -0.000002 0.000005 0.000016 0.000021 2.305301 -0.000026 -0.000003 5.635791 -0.000020 -0.864447 6.051374 -10.018026 3.874826 -176.501295 0.000047 -0.550414 3.121666 -0.000008 -0.000002 -0.000007 -0.788275 -1.313740 4.256823 4.068736 122.768129 142.036502 -3.915135 -0.000024 -0.000012 -0.000000 -0.000009 0.000003 -6.914847 0.000000 0.000031 0.000007 0.000008 -79.379133 -6.096189 0.000018 0.000021 -0.000026 -0.000023 -0.000050 -1.749901 -0.000017 0.000031 -0.000000 0.000005 0.000002 -0.699969 -1.166613 -0.466643 -0.000025 -0.000004 -0.000026 0.788255 -1.313764 4.256761 -127.303429 -52.756197 75.088142 3.915256 -0.000001 -0.000046 -0.000002 0.000003 0.000003 6.914923 -0.000064 -0.000003 -0.000012 -0.000001 65.287272 6.096261 0.000178 -0.000026 -0.000001 0.000019 0.000022 1.749997 0.000015 0.000068 -0.000011 -0.000005 -0.000004 0.699982 -1.166588 -0.466640 0.000040 -0.000006 -0.000046 -2.338598 -0.252543 -0.551445 -68.722461 -9.709938 -8.579236 0.000013 -0.000018 -10.744945 77.091211 -3.149166 -6.153883 -0.000023 0.000071 -10.930842 0.000050 -0.000005 0.000005 -0.000029 -4.087234 -1.487616 0.000002 -0.000000 0.000002 2.338589 -0.252536 -0.551485 -67.876289 4.749373 -8.534179 -0.000021 -0.000001 -10.744924 89.432646 -5.376725 8.157677 0.000010 -0.000005 -10.930862 -0.000017 -0.000002 0.000004 -0.000051 -4.087205 -1.487649 -0.000001 -0.000001 -0.000006 
0.000147 26.873785 34.755508 -8.207779 -4.272187 64.908244 -0.000005 0.900092 1.860673 29.942603 -10.098969 4.582613 -0.000018 0.400272 2.270290 0.000009 0.000002 0.000016 0.000011 0.200872 2.296543 -0.000000 -0.000000 0.000006 0.000018 0.000024 2.305305 -0.000026 -0.000000 5.477359 -0.000019 -0.864444 6.051375 -10.019464 3.853650 -176.168556 0.000048 -0.550415 3.121670 -0.000007 -0.000001 -0.000009 -0.788274 -1.313737 4.256826 3.879024 122.628807 142.279356 -3.915133 -0.000022 -0.000012 0.000000 -0.000010 0.000003 -6.914850 -0.000001 0.000024 0.000007 0.000006 -79.634262 -6.096188 0.000020 0.000018 -0.000026 -0.000019 -0.000050 -1.749902 -0.000019 0.000031 -0.000000 0.000001 0.000002 -0.699967 -1.166614 -0.466635 -0.000026 -0.000008 -0.000025 0.788254 -1.313760 4.256759 -127.568495 -52.765721 75.092671 3.915259 -0.000002 -0.000038 -0.000002 0.000002 0.000003 6.914927 -0.000063 -0.000002 -0.000013 -0.000003 65.592082 6.096260 0.000181 -0.000025 0.000002 0.000016 0.000021 1.749996 0.000015 0.000068 -0.000011 -0.000007 -0.000001 0.699977 -1.166581 -0.466649 0.000038 -0.000005 -0.000042 -2.338595 -0.252535 -0.551451 -68.689949 -9.637242 -8.635740 0.000017 -0.000014 -10.744944 77.067996 -3.078023 -6.053525 -0.000024 0.000070 -10.930839 0.000048 -0.000005 0.000007 -0.000029 -4.087234 -1.487618 0.000002 0.000003 0.000001 2.338591 -0.252531 -0.551487 -67.780229 4.617865 -8.586272 -0.000027 0.000002 -10.744922 89.225582 -5.236500 8.062217 0.000010 -0.000005 -10.930861 -0.000017 0.000001 0.000003 -0.000052 -4.087206 -1.487652 -0.000002 0.000001 -0.000005 
0.000149 26.873785 34.755508 -8.231722 -4.086577 64.894932 -0.000004 0.900089 1.860673 29.963736 -10.156674 4.607998 -0.000015 0.400274 2.270298 0.000007 0.000001 0.000013 0.000014 0.200871 2.296541 0.000001 -0.000003 0.000002 0.000018 0.000026 2.305305 -0.000024 -0.000008 5.613791 -0.000020 -0.864444 6.051373 -10.157900 3.709279 -175.839067 0.000049 -0.550414 3.121666 -0.000008 -0.000001 -0.000008 -0.788270 -1.313738 4.256824 3.856100 122.575791 142.258907 -3.915135 -0.000023 -0.000016 0.000000 -0.000008 0.000003 -6.914847 0.000000 0.000024 0.000006 0.000003 -79.847807 -6.096187 0.000019 0.000021 -0.000026 -0.000020 -0.000051 -1.749902 -0.000013 0.000032 -0.000000 0.000003 0.000001 -0.699969 -1.166607 -0.466639 -0.000025 -0.000005 -0.000026 0.788256 -1.313763 4.256764 -127.427233 -52.543358 75.261615 3.915258 0.000004 -0.000038 -0.000002 0.000002 0.000003 6.914927 -0.000063 -0.000002 -0.000012 -0.000000 65.504349 6.096259 0.000183 -0.000025 0.000005 0.000010 0.000026 1.749995 0.000014 0.000063 -0.000009 -0.000004 0.000000 0.699979 -1.166585 -0.466648 0.000042 -0.000004 -0.000043 -2.338595 -0.252539 -0.551454 -68.812817 -9.707306 -8.686512 0.000015 -0.000015 -10.744945 77.054718 -3.134991 -6.122477 -0.000021 0.000070 -10.930843 0.000048 -0.000004 0.000005 -0.000028 -4.087234 -1.487620 0.000000 0.000000 0.000002 2.338591 -0.252531 -0.551491 -68.038035 4.564903 -8.642790 -0.000026 -0.000002 -10.744925 89.462473 -5.272930 7.988626 0.000009 -0.000007 -10.930861 -0.000014 -0.000001 0.000002 -0.000056 -4.087206 -1.487650 -0.000005 0.000001 -0.000006 
0.000151 26.873787 34.755505 -8.245277 -3.939806 64.756641 -0.000006 0.900087 1.860678 30.183890 -10.260393 4.685354 -0.000013 0.400274 2.270292 0.000007 0.000001 0.000013 0.000015 0.200870 2.296543 -0.000001 0.000000 0.000003 0.000019 0.000024 2.305305 -0.000021 -0.000002 5.693594 -0.000021 -0.864441 6.051373 -10.556161 4.180454 -175.583782 0.000046 -0.550413 3.121662 -0.000008 -0.000002 -0.000006 -0.788273 -1.313734 4.256823 4.055432 122.668968 142.037021 -3.915130 -0.000022 -0.000012 -0.000000 -0.000010 0.000003 -6.914844 -0.000002 0.000031 0.000006 0.000006 -80.355140 -6.096187 0.000025 0.000016 -0.000024 -0.000020 -0.000050 -1.749900 -0.000012 0.000035 -0.000002 0.000005 0.000000 -0.699970 -1.166612 -0.466638 -0.000025 -0.000006 -0.000028 0.788257 -1.313759 4.256758 -127.292296 -52.067324 75.535861 3.915259 0.000001 -0.000038 0.000001 0.000000 0.000003 6.914923 -0.000061 -0.000006 -0.000011 -0.000005 64.780765 6.096258 0.000182 -0.000026 0.000000 0.000016 0.000022 1.749997 0.000016 0.000063 -0.000010 -0.000008 -0.000003 0.699983 -1.166579 -0.466646 0.000038 -0.000004 -0.000041 -2.338594 -0.252539 -0.551453 -68.745499 -9.693597 -8.768810 0.000014 -0.000017 -10.744944 76.759831 -3.278970 -6.058661 -0.000027 0.000071 -10.930842 0.000050 -0.000004 0.000009 -0.000029 -4.087237 -1.487614 0.000004 0.000000 -0.000000 2.338592 -0.252535 -0.551488 -68.001234 4.463831 -8.726463 -0.000024 0.000003 -10.744920 89.312831 -5.286873 7.927196 0.000010 -0.000007 -10.930861 -0.000015 -0.000001 -0.000001 -0.000055 -4.087203 -1.487650 -0.000004 0.000000 -0.000002 
0.000142 26.873793 34.755508 -8.220205 -3.741503 64.723057 -0.000004 0.900086 1.860679 30.214226 -10.344121 4.715033 -0.000019 0.400271 2.270290 0.000009 0.000001 0.000017 0.000014 0.200871 2.296539 -0.000000 -0.000003 0.000007 0.000014 0.000026 2.305302 -0.000020 -0.000001 5.760243 -0.000020 -0.864446 6.051375 -10.687114 4.431712 -175.817334 0.000045 -0.550414 3.121670 -0.000006 -0.000002 -0.000009 -0.788274 -1.313738 4.256827 3.778683 122.757952 142.040874 -3.915137 -0.000024 -0.000016 0.000000 -0.000010 0.000004 -6.914851 -0.000001 0.000027 0.000006 0.000004 -80.655409 -6.096188 0.000027 0.000021 -0.000023 -0.000021 -0.000050 -1.749903 -0.000014 0.000032 -0.000000 0.000003 0.000001 -0.699968 -1.166612 -0.466642 -0.000021 -0.000005 -0.000026 0.788251 -1.313762 4.256763 -127.198681 -51.744161 75.556017 3.915251 0.000000 -0.000038 -0.000002 0.000003 0.000003 6.914924 -0.000063 -0.000002 -0.000011 -0.000001 65.318513 6.096264 0.000182 -0.000028 0.000003 0.000012 0.000028 1.749989 0.000016 0.000071 -0.000012 -0.000002 0.000004 0.699976 -1.166587 -0.466645 0.000040 -0.000004 -0.000040 -2.338595 -0.252542 -0.551449 -69.064735 -9.633862 -8.834840 0.000014 -0.000015 -10.744942 76.898962 -3.414188 -6.033493 -0.000024 0.000071 -10.930842 0.000050 -0.000003 0.000006 -0.000029 -4.087234 -1.487616 0.000002 0.000000 0.000002 2.338592 -0.252536 -0.551483 -68.321412 4.278400 -8.789137 -0.000027 -0.000001 -10.744922 89.421998 -5.240793 7.712183 0.000008 -0.000007 -10.930859 -0.000015 -0.000001 0.000003 -0.000054 -4.087205 -1.487651 -0.000001 0.000001 -0.000007 
0.000144 26.873798 34.755505 -8.200286 -3.621052 64.492046 -0.000005 0.900089 1.860672 30.343812 -10.266864 4.762250 -0.000016 0.400272 2.270292 0.000009 0.000000 0.000012 0.000016 0.200872 2.296541 -0.000000 -0.000003 0.000002 0.000017 0.000026 2.305301 -0.000024 -0.000007 5.803580 -0.000017 -0.864443 6.051375 -10.845949 4.817423 -176.281268 0.000048 -0.550414 3.121670 -0.000009 -0.000002 -0.000007 -0.788273 -1.313736 4.256826 3.946683 122.792485 141.605053 -3.915133 -0.000023 -0.000012 0.000000 -0.000009 0.000003 -6.914851 -0.000001 0.000031 0.000006 0.000007 -80.851995 -6.096187 0.000017 0.000017 -0.000026 -0.000020 -0.000050 -1.749904 -0.000008 0.000029 0.000000 0.000004 0.000002 -0.699967 -1.166607 -0.466641 -0.000021 -0.000007 -0.000024 0.788253 -1.313761 4.256769 -127.059728 -51.884617 75.551209 3.915256 0.000004 -0.000038 0.000001 0.000003 0.000003 6.914927 -0.000062 -0.000009 -0.000004 -0.000006 64.337022 6.096255 0.000177 -0.000028 -0.000000 0.000019 0.000029 1.749996 0.000017 0.000061 -0.000008 -0.000009 -0.000003 0.699981 -1.166580 -0.466652 0.000040 -0.000004 -0.000045 -2.338595 -0.252539 -0.551451 -69.203122 -9.693972 -8.898855 0.000014 -0.000015 -10.744946 76.757509 -3.480947 -6.087871 -0.000025 0.000071 -10.930840 0.000050 -0.000004 0.000007 -0.000028 -4.087235 -1.487616 0.000000 0.000001 -0.000000 2.338592 -0.252533 -0.551492 -68.305361 4.173597 -8.841241 -0.000027 0.000001 -10.744924 89.207134 -5.319286 7.631704 0.000009 -0.000007 -10.930860 -0.000017 -0.000002 0.000004 -0.000054 -4.087205 -1.487652 -0.000002 -0.000001 -0.000007 
